<svg width="16" height="16" viewBox="0 0 16 16" fill="none" xmlns="http://www.w3.org/2000/svg">
<path d="M4.13569 10.803C3.84279 11.0959 3.84279 11.5708 4.13569 11.8637C4.42858 12.1565 4.90345 12.1565 5.19635 11.8637L4.13569 10.803ZM8.52968 8.53032C8.82257 8.23743 8.82257 7.76255 8.52968 7.46966C8.23679 7.17677 7.76191 7.17677 7.46902 7.46966L8.52968 8.53032ZM7.46902 7.46966C7.17613 7.76255 7.17613 8.23743 7.46902 8.53032C7.76191 8.82321 8.23679 8.82321 8.52968 8.53032L7.46902 7.46966ZM11.863 5.19699C12.1559 4.90409 12.1559 4.42922 11.863 4.13633C11.5701 3.84343 11.0952 3.84343 10.8024 4.13633L11.863 5.19699ZM8.52968 7.46966C8.23679 7.17677 7.76191 7.17677 7.46902 7.46966C7.17613 7.76255 7.17613 8.23743 7.46902 8.53032L8.52968 7.46966ZM10.8024 11.8637C11.0952 12.1565 11.5701 12.1565 11.863 11.8637C12.1559 11.5708 12.1559 11.0959 11.863 10.803L10.8024 11.8637ZM7.46902 8.53032C7.76191 8.82321 8.23679 8.82321 8.52968 8.53032C8.82257 8.23743 8.82257 7.76255 8.52968 7.46966L7.46902 8.53032ZM5.19635 4.13633C4.90345 3.84343 4.42858 3.84343 4.13569 4.13633C3.84279 4.42922 3.84279 4.90409 4.13569 5.19699L5.19635 4.13633ZM5.19635 11.8637L8.52968 8.53032L7.46902 7.46966L4.13569 10.803L5.19635 11.8637ZM8.52968 8.53032L11.863 5.19699L10.8024 4.13633L7.46902 7.46966L8.52968 8.53032ZM7.46902 8.53032L10.8024 11.8637L11.863 10.803L8.52968 7.46966L7.46902 8.53032ZM8.52968 7.46966L5.19635 4.13633L4.13569 5.19699L7.46902 8.53032L8.52968 7.46966Z" fill="#505567"/>
</svg>
