<svg width="20" height="21" viewBox="0 0 20 21" fill="currentColor" xmlns="http://www.w3.org/2000/svg">
<path d="M15.0499 17.1855L14.9264 16.4457L15.0499 17.1855ZM17.4711 9.12915L16.7219 9.09325L17.4711 9.12915ZM4.95013 17.1855L4.82669 17.9253L4.95013 17.1855ZM1.77977 9.16504C1.85636 10.7633 2.09773 13.5225 2.67925 15.8666L4.13512 15.5055C3.58787 13.2995 3.35273 10.6518 3.27805 9.09325L1.77977 9.16504ZM4.82669 17.9253C5.87826 18.1007 7.54921 18.2551 10 18.2551V16.7551C7.60602 16.7551 6.02145 16.6039 5.07356 16.4457L4.82669 17.9253ZM16.7219 9.09325C16.6473 10.6518 16.4121 13.2995 15.8649 15.5055L17.3207 15.8666C17.9023 13.5225 18.1436 10.7633 18.2202 9.16504L16.7219 9.09325ZM14.9264 16.4457C13.9785 16.6039 12.394 16.7551 10 16.7551V18.2551C12.4508 18.2551 14.1217 18.1007 15.1733 17.9253L14.9264 16.4457ZM3.5 8.88013H16.5V7.38013H3.5V8.88013ZM15.8649 15.5055C15.7348 16.03 15.3754 16.3708 14.9264 16.4457L15.1733 17.9253C16.294 17.7383 17.0677 16.8866 17.3207 15.8666L15.8649 15.5055ZM18.2202 9.16504C18.2681 8.16625 17.461 7.38013 16.5 7.38013V8.88013C16.6436 8.88013 16.7269 8.98874 16.7219 9.09325L18.2202 9.16504ZM2.67925 15.8666C2.93229 16.8866 3.70604 17.7383 4.82669 17.9253L5.07356 16.4457C4.62462 16.3708 4.26523 16.03 4.13512 15.5055L2.67925 15.8666ZM3.27805 9.09325C3.27305 8.98874 3.35643 8.88013 3.5 8.88013V7.38013C2.539 7.38013 1.73192 8.16625 1.77977 9.16504L3.27805 9.09325Z" />
<path d="M4.875 8.13013C4.875 8.54434 5.21079 8.88013 5.625 8.88013C6.03921 8.88013 6.375 8.54434 6.375 8.13013H4.875ZM13.625 8.13013C13.625 8.54434 13.9608 8.88013 14.375 8.88013C14.7892 8.88013 15.125 8.54434 15.125 8.13013H13.625ZM6.375 8.13013V6.88012H4.875V8.13013H6.375ZM13.625 6.88012V8.13013H15.125V6.88012H13.625ZM10 3.25513C12.002 3.25513 13.625 4.87809 13.625 6.88012H15.125C15.125 4.04967 12.8305 1.75513 10 1.75513V3.25513ZM6.375 6.88012C6.375 4.87809 7.99797 3.25513 10 3.25513V1.75513C7.16954 1.75513 4.875 4.04967 4.875 6.88012H6.375Z" />
<path d="M7.5 11.8801V13.7551M12.5 11.8801V13.7551" stroke="CurrentColor" stroke-width="1.5" stroke-linecap="round" stroke-linejoin="round"/>
</svg>
