<svg width="24" height="24" viewBox="0 0 24 24" fill="currentColor" xmlns="http://www.w3.org/2000/svg">
<path d="M2.4424 13.5269C2.16539 13.8348 2.19046 14.309 2.49841 14.586C2.80637 14.8631 3.28058 14.838 3.5576 14.53L2.4424 13.5269ZM20.4424 14.53C20.7194 14.838 21.1936 14.8631 21.5016 14.586C21.8095 14.309 21.8346 13.8348 21.5576 13.5269L20.4424 14.53ZM11.2565 4.84992L11.8141 5.3515L11.2565 4.84992ZM12.7435 4.84992L12.1859 5.3515L12.7435 4.84992ZM3.5576 14.53L11.8141 5.3515L10.6989 4.34833L2.4424 13.5269L3.5576 14.53ZM12.1859 5.3515L20.4424 14.53L21.5576 13.5269L13.3011 4.34833L12.1859 5.3515ZM11.8141 5.3515C11.9135 5.2411 12.0865 5.2411 12.1859 5.3515L13.3011 4.34833C12.6058 3.57549 11.3942 3.57549 10.6989 4.34833L11.8141 5.3515Z" fill="currentColor"/>
<path d="M5.76848 10.9567L11.2543 4.83168C11.6518 4.38792 12.3467 4.38792 12.7442 4.83168L18.23 10.9567L18.5163 12.9136C18.7854 14.7536 18.7722 16.6239 18.4772 18.46C18.3348 19.3463 17.5699 19.9981 16.6721 19.9981H7.32636C6.42864 19.9981 5.66374 19.3463 5.52132 18.46C5.22628 16.6239 5.21311 14.7536 5.48225 12.9136L5.76848 10.9567Z" fill="#F2F6F7"/>
<path d="M5.76848 10.9567L5.2098 10.4563C5.1115 10.566 5.0477 10.7023 5.02638 10.8481L5.76848 10.9567ZM18.23 10.9567L18.9721 10.8481C18.9508 10.7023 18.887 10.566 18.7887 10.4563L18.23 10.9567ZM18.5163 12.9136L17.7741 13.0221L18.5163 12.9136ZM12.7442 4.83168L12.1855 5.33206L12.7442 4.83168ZM16.6721 19.2481H7.32636V20.7481H16.6721V19.2481ZM6.32716 11.457L11.813 5.33206L10.6957 4.3313L5.2098 10.4563L6.32716 11.457ZM12.1855 5.33206L17.6713 11.457L18.7887 10.4563L13.3028 4.3313L12.1855 5.33206ZM17.4879 11.0652L17.7741 13.0221L19.2584 12.805L18.9721 10.8481L17.4879 11.0652ZM6.22435 13.0221L6.51058 11.0652L5.02638 10.8481L4.74014 12.805L6.22435 13.0221ZM6.26182 18.341C5.97888 16.5803 5.96625 14.7867 6.22435 13.0221L4.74014 12.805C4.45996 14.7205 4.47368 16.6676 4.78082 18.579L6.26182 18.341ZM17.7741 13.0221C18.0322 14.7867 18.0196 16.5803 17.7367 18.341L19.2177 18.579C19.5248 16.6676 19.5385 14.7205 19.2584 12.805L17.7741 13.0221ZM11.813 5.33206C11.9124 5.22112 12.0861 5.22112 12.1855 5.33206L13.3028 4.3313C12.6073 3.55471 11.3912 3.55471 10.6957 4.3313L11.813 5.33206ZM7.32636 19.2481C6.79692 19.2481 6.34581 18.8637 6.26182 18.341L4.78082 18.579C4.98167 19.829 6.06036 20.7481 7.32636 20.7481V19.2481ZM16.6721 20.7481C17.9381 20.7481 19.0168 19.829 19.2177 18.579L17.7367 18.341C17.6527 18.8637 17.2016 19.2481 16.6721 19.2481V20.7481Z" fill="currentColor"/>
<path d="M11.999 13.5039C13.3252 13.5039 14.4004 14.5342 14.4004 15.8052V20.0003H9.59766V15.8052C9.59766 14.5342 10.6728 13.5039 11.999 13.5039Z" fill="white" stroke="currentColor" stroke-width="1.5" stroke-linecap="round" stroke-linejoin="round"/>
</svg>
