<svg style="display: none;" aria-hidden="true" xmlns="http://www.w3.org/2000/svg" xmlns:xlink="http://www.w3.org/1999/xlink"><symbol viewBox="0 0 20 21" fill="currentColor" id="svg-cart"><path d="M15.0499 17.1855L14.9264 16.4457L15.0499 17.1855ZM17.4711 9.12915L16.7219 9.09325L17.4711 9.12915ZM4.95013 17.1855L4.82669 17.9253L4.95013 17.1855ZM1.77977 9.16504C1.85636 10.7633 2.09773 13.5225 2.67925 15.8666L4.13512 15.5055C3.58787 13.2995 3.35273 10.6518 3.27805 9.09325L1.77977 9.16504ZM4.82669 17.9253C5.87826 18.1007 7.54921 18.2551 10 18.2551V16.7551C7.60602 16.7551 6.02145 16.6039 5.07356 16.4457L4.82669 17.9253ZM16.7219 9.09325C16.6473 10.6518 16.4121 13.2995 15.8649 15.5055L17.3207 15.8666C17.9023 13.5225 18.1436 10.7633 18.2202 9.16504L16.7219 9.09325ZM14.9264 16.4457C13.9785 16.6039 12.394 16.7551 10 16.7551V18.2551C12.4508 18.2551 14.1217 18.1007 15.1733 17.9253L14.9264 16.4457ZM3.5 8.88013H16.5V7.38013H3.5V8.88013ZM15.8649 15.5055C15.7348 16.03 15.3754 16.3708 14.9264 16.4457L15.1733 17.9253C16.294 17.7383 17.0677 16.8866 17.3207 15.8666L15.8649 15.5055ZM18.2202 9.16504C18.2681 8.16625 17.461 7.38013 16.5 7.38013V8.88013C16.6436 8.88013 16.7269 8.98874 16.7219 9.09325L18.2202 9.16504ZM2.67925 15.8666C2.93229 16.8866 3.70604 17.7383 4.82669 17.9253L5.07356 16.4457C4.62462 16.3708 4.26523 16.03 4.13512 15.5055L2.67925 15.8666ZM3.27805 9.09325C3.27305 8.98874 3.35643 8.88013 3.5 8.88013V7.38013C2.539 7.38013 1.73192 8.16625 1.77977 9.16504L3.27805 9.09325Z"/><path d="M4.875 8.13013C4.875 8.54434 5.21079 8.88013 5.625 8.88013C6.03921 8.88013 6.375 8.54434 6.375 8.13013H4.875ZM13.625 8.13013C13.625 8.54434 13.9608 8.88013 14.375 8.88013C14.7892 8.88013 15.125 8.54434 15.125 8.13013H13.625ZM6.375 8.13013V6.88012H4.875V8.13013H6.375ZM13.625 6.88012V8.13013H15.125V6.88012H13.625ZM10 3.25513C12.002 3.25513 13.625 4.87809 13.625 6.88012H15.125C15.125 4.04967 12.8305 1.75513 10 1.75513V3.25513ZM6.375 6.88012C6.375 4.87809 7.99797 3.25513 10 3.25513V1.75513C7.16954 1.75513 4.875 4.04967 4.875 6.88012H6.375Z"/><path d="M7.5 11.8801V13.7551M12.5 11.8801V13.7551" stroke="CurrentColor" stroke-width="1.5" stroke-linecap="round" stroke-linejoin="round"/></symbol><symbol viewBox="0 0 16 17" fill="none" id="svg-eye"><path d="M14 8.01027C14 9.07142 11.3137 12.8103 8 12.8103C4.68629 12.8103 2 9.07142 2 8.01027C2 6.94911 4.68629 3.21027 8 3.21027C11.3137 3.21027 14 6.94911 14 8.01027Z" fill="#fff"/><path d="M13.25 8.01027C13.25 8.00671 13.2456 8.0798 13.1799 8.24734C13.1192 8.40194 13.0227 8.59605 12.8875 8.81852C12.6174 9.26316 12.2172 9.78148 11.7169 10.2733C10.6998 11.2732 9.37856 12.0603 8 12.0603V13.5603C9.93515 13.5603 11.6139 12.4779 12.7684 11.343C13.3538 10.7676 13.8324 10.1522 14.1695 9.59736C14.3379 9.32009 14.4771 9.048 14.5763 8.79502C14.6705 8.55499 14.75 8.27911 14.75 8.01027H13.25ZM8 12.0603C6.62144 12.0603 5.30022 11.2732 4.28313 10.2733C3.78277 9.78148 3.38263 9.26316 3.11249 8.81852C2.97733 8.59605 2.88075 8.40194 2.82012 8.24734C2.75441 8.0798 2.75 8.00671 2.75 8.01027H1.25C1.25 8.27911 1.32954 8.55499 1.42368 8.79502C1.5229 9.048 1.66208 9.32009 1.83053 9.59736C2.16763 10.1522 2.64616 10.7676 3.23159 11.343C4.38607 12.4779 6.06485 13.5603 8 13.5603V12.0603ZM2.75 8.01027C2.75 8.01382 2.75441 7.94073 2.82012 7.77319C2.88075 7.61859 2.97733 7.42448 3.11249 7.20202C3.38263 6.75737 3.78277 6.23905 4.28313 5.74718C5.30022 4.74736 6.62144 3.96027 8 3.96027V2.46027C6.06485 2.46027 4.38607 3.5426 3.23159 4.67748C2.64616 5.25298 2.16763 5.86833 1.83053 6.42317C1.66208 6.70045 1.5229 6.97253 1.42368 7.22551C1.32954 7.46554 1.25 7.74143 1.25 8.01027H2.75ZM8 3.96027C9.37856 3.96027 10.6998 4.74736 11.7169 5.74718C12.2172 6.23905 12.6174 6.75737 12.8875 7.20202C13.0227 7.42448 13.1192 7.61859 13.1799 7.77319C13.2456 7.94073 13.25 8.01382 13.25 8.01027H14.75C14.75 7.74143 14.6705 7.46554 14.5763 7.22551C14.4771 6.97253 14.3379 6.70045 14.1695 6.42317C13.8324 5.86833 13.3538 5.25298 12.7684 4.67748C11.6139 3.5426 9.93515 2.46027 8 2.46027V3.96027Z" fill="#505567"/><path d="M7.99922 9.81027C8.99333 9.81027 9.79922 9.00438 9.79922 8.01027C9.79922 7.01615 8.99333 6.21027 7.99922 6.21027C7.00511 6.21027 6.19922 7.01615 6.19922 8.01027C6.19922 9.00438 7.00511 9.81027 7.99922 9.81027Z" fill="#fff" stroke="#505567" stroke-width="1.5" stroke-linecap="round" stroke-linejoin="round"/></symbol></svg>