<svg style="display: none;" aria-hidden="true" xmlns="http://www.w3.org/2000/svg" xmlns:xlink="http://www.w3.org/1999/xlink"><symbol viewBox="0 0 24 24" fill="none" id="svg-arrow-left"><path clip-rule="evenodd" d="M13.585 7.30533L8.52813 10.8772C8.19678 11.0974 8 11.4538 8 11.8337C8 12.2136 8.19678 12.57 8.52813 12.7902L13.585 16.6948C14.0128 17.0146 14.5939 17.0893 15.0983 16.8894C15.6026 16.6895 15.9489 16.2472 16 15.7377L16 8.25998C15.948 7.75089 15.6014 7.30941 15.0972 7.1101C14.593 6.91078 14.0124 6.98574 13.585 7.30533Z" stroke="#353949" stroke-width="1.5" stroke-linecap="round" stroke-linejoin="round"/></symbol><symbol viewBox="0 0 24 24" fill="none" id="svg-arrow-right"><path clip-rule="evenodd" d="M10.415 7.30533L15.4719 10.8772C15.8032 11.0974 16 11.4538 16 11.8337C16 12.2136 15.8032 12.57 15.4719 12.7902L10.415 16.6948C9.98722 17.0146 9.4061 17.0893 8.90173 16.8894C8.39737 16.6895 8.05109 16.2472 8 15.7377L8 8.25998C8.05197 7.75089 8.39858 7.30941 8.90279 7.1101C9.40699 6.91078 9.98759 6.98574 10.415 7.30533Z" stroke="#353949" stroke-width="1.5" stroke-linecap="round" stroke-linejoin="round"/></symbol><symbol viewBox="0 0 20 21" fill="currentColor" id="svg-cart"><path d="M15.0499 17.1855L14.9264 16.4457L15.0499 17.1855ZM17.4711 9.12915L16.7219 9.09325L17.4711 9.12915ZM4.95013 17.1855L4.82669 17.9253L4.95013 17.1855ZM1.77977 9.16504C1.85636 10.7633 2.09773 13.5225 2.67925 15.8666L4.13512 15.5055C3.58787 13.2995 3.35273 10.6518 3.27805 9.09325L1.77977 9.16504ZM4.82669 17.9253C5.87826 18.1007 7.54921 18.2551 10 18.2551V16.7551C7.60602 16.7551 6.02145 16.6039 5.07356 16.4457L4.82669 17.9253ZM16.7219 9.09325C16.6473 10.6518 16.4121 13.2995 15.8649 15.5055L17.3207 15.8666C17.9023 13.5225 18.1436 10.7633 18.2202 9.16504L16.7219 9.09325ZM14.9264 16.4457C13.9785 16.6039 12.394 16.7551 10 16.7551V18.2551C12.4508 18.2551 14.1217 18.1007 15.1733 17.9253L14.9264 16.4457ZM3.5 8.88013H16.5V7.38013H3.5V8.88013ZM15.8649 15.5055C15.7348 16.03 15.3754 16.3708 14.9264 16.4457L15.1733 17.9253C16.294 17.7383 17.0677 16.8866 17.3207 15.8666L15.8649 15.5055ZM18.2202 9.16504C18.2681 8.16625 17.461 7.38013 16.5 7.38013V8.88013C16.6436 8.88013 16.7269 8.98874 16.7219 9.09325L18.2202 9.16504ZM2.67925 15.8666C2.93229 16.8866 3.70604 17.7383 4.82669 17.9253L5.07356 16.4457C4.62462 16.3708 4.26523 16.03 4.13512 15.5055L2.67925 15.8666ZM3.27805 9.09325C3.27305 8.98874 3.35643 8.88013 3.5 8.88013V7.38013C2.539 7.38013 1.73192 8.16625 1.77977 9.16504L3.27805 9.09325Z"/><path d="M4.875 8.13013C4.875 8.54434 5.21079 8.88013 5.625 8.88013C6.03921 8.88013 6.375 8.54434 6.375 8.13013H4.875ZM13.625 8.13013C13.625 8.54434 13.9608 8.88013 14.375 8.88013C14.7892 8.88013 15.125 8.54434 15.125 8.13013H13.625ZM6.375 8.13013V6.88012H4.875V8.13013H6.375ZM13.625 6.88012V8.13013H15.125V6.88012H13.625ZM10 3.25513C12.002 3.25513 13.625 4.87809 13.625 6.88012H15.125C15.125 4.04967 12.8305 1.75513 10 1.75513V3.25513ZM6.375 6.88012C6.375 4.87809 7.99797 3.25513 10 3.25513V1.75513C7.16954 1.75513 4.875 4.04967 4.875 6.88012H6.375Z"/><path d="M7.5 11.8801V13.7551M12.5 11.8801V13.7551" stroke="CurrentColor" stroke-width="1.5" stroke-linecap="round" stroke-linejoin="round"/></symbol><symbol viewBox="0 0 24 24" fill="none" id="svg-close"><path d="M6.46967 16.4697C6.17678 16.7626 6.17678 17.2374 6.46967 17.5303C6.76256 17.8232 7.23744 17.8232 7.53033 17.5303L6.46967 16.4697ZM12.5303 12.5303C12.8232 12.2374 12.8232 11.7626 12.5303 11.4697C12.2374 11.1768 11.7626 11.1768 11.4697 11.4697L12.5303 12.5303ZM11.4697 11.4697C11.1768 11.7626 11.1768 12.2374 11.4697 12.5303C11.7626 12.8232 12.2374 12.8232 12.5303 12.5303L11.4697 11.4697ZM17.5303 7.53033C17.8232 7.23744 17.8232 6.76256 17.5303 6.46967C17.2374 6.17678 16.7626 6.17678 16.4697 6.46967L17.5303 7.53033ZM12.5303 11.4697C12.2374 11.1768 11.7626 11.1768 11.4697 11.4697C11.1768 11.7626 11.1768 12.2374 11.4697 12.5303L12.5303 11.4697ZM16.4697 17.5303C16.7626 17.8232 17.2374 17.8232 17.5303 17.5303C17.8232 17.2374 17.8232 16.7626 17.5303 16.4697L16.4697 17.5303ZM11.4697 12.5303C11.7626 12.8232 12.2374 12.8232 12.5303 12.5303C12.8232 12.2374 12.8232 11.7626 12.5303 11.4697L11.4697 12.5303ZM7.53033 6.46967C7.23744 6.17678 6.76256 6.17678 6.46967 6.46967C6.17678 6.76256 6.17678 7.23744 6.46967 7.53033L7.53033 6.46967ZM7.53033 17.5303L12.5303 12.5303L11.4697 11.4697L6.46967 16.4697L7.53033 17.5303ZM12.5303 12.5303L17.5303 7.53033L16.4697 6.46967L11.4697 11.4697L12.5303 12.5303ZM11.4697 12.5303L16.4697 17.5303L17.5303 16.4697L12.5303 11.4697L11.4697 12.5303ZM12.5303 11.4697L7.53033 6.46967L6.46967 7.53033L11.4697 12.5303L12.5303 11.4697Z" fill="#fff"/></symbol><symbol viewBox="0 0 24 24" fill="none" id="svg-copy"><rect x="6.996" y="6.998" width="14.006" height="14.006" rx="3" stroke="#fff" stroke-width="1.5" stroke-linecap="round" stroke-linejoin="round"/><path d="M6.99776 17.0019H5.99734C4.3398 17.0019 2.99609 15.6582 2.99609 14.0007V5.99734C2.99609 4.3398 4.3398 2.99609 5.99734 2.99609H14.0007C15.6582 2.99609 17.0019 4.3398 17.0019 5.99734V6.99776" stroke="#fff" stroke-width="1.5" stroke-linecap="round" stroke-linejoin="round"/></symbol><symbol viewBox="0 0 18 18" fill="currentColor" id="svg-inst"><path d="M6.00072 9C6.00072 7.34321 7.3435 5.99976 9.00036 5.99976C10.6572 5.99976 12.0007 7.34321 12.0007 9C12.0007 10.6568 10.6572 12.0002 9.00036 12.0002C7.3435 12.0002 6.00072 10.6568 6.00072 9ZM4.37878 9C4.37878 11.5524 6.44786 13.6214 9.00036 13.6214C11.5529 13.6214 13.6219 11.5524 13.6219 9C13.6219 6.4476 11.5529 4.37861 9.00036 4.37861C6.44786 4.37861 4.37878 6.4476 4.37878 9ZM12.7249 4.19537C12.7248 4.40897 12.788 4.6178 12.9066 4.79546C13.0252 4.97311 13.1939 5.1116 13.3912 5.19342C13.5885 5.27525 13.8057 5.29672 14.0152 5.25513C14.2247 5.21354 14.4172 5.11076 14.5683 4.95978C14.7194 4.8088 14.8223 4.6164 14.8641 4.40692C14.9059 4.19744 14.8846 3.98028 14.8029 3.7829C14.7212 3.58552 14.5829 3.4168 14.4053 3.29805C14.2277 3.17931 14.0189 3.11589 13.8053 3.1158H13.8049C13.5186 3.11593 13.244 3.2297 13.0415 3.43212C12.839 3.63454 12.7251 3.90905 12.7249 4.19537ZM5.36421 16.3258C4.48672 16.2858 4.00977 16.1397 3.69281 16.0162C3.2726 15.8526 2.97278 15.6578 2.65755 15.343C2.34233 15.0282 2.1472 14.7287 1.98433 14.3085C1.86077 13.9917 1.7146 13.5146 1.67472 12.6372C1.63108 11.6885 1.62237 11.4035 1.62237 9.00007C1.62237 6.59664 1.6318 6.31246 1.67472 5.36299C1.71468 4.48553 1.86192 4.00939 1.98433 3.69166C2.14792 3.27146 2.34276 2.97166 2.65755 2.65644C2.97235 2.34122 3.27188 2.1461 3.69281 1.98324C4.00962 1.85969 4.48672 1.71353 5.36421 1.67364C6.31292 1.63001 6.59791 1.6213 9.00036 1.6213C11.4028 1.6213 11.6881 1.63073 12.6376 1.67364C13.5151 1.7136 13.9912 1.86084 14.309 1.98324C14.7292 2.1461 15.029 2.34166 15.3442 2.65644C15.6595 2.97122 15.8539 3.27146 16.0175 3.69166C16.141 4.00846 16.2872 4.48553 16.3271 5.36299C16.3707 6.31246 16.3794 6.59664 16.3794 9.00007C16.3794 11.4035 16.3707 11.6877 16.3271 12.6372C16.2871 13.5146 16.1402 13.9915 16.0175 14.3085C15.8539 14.7287 15.659 15.0285 15.3442 15.343C15.0294 15.6575 14.7292 15.8526 14.309 16.0162C13.9922 16.1397 13.5151 16.2859 12.6376 16.3258C11.6889 16.3694 11.4039 16.3781 9.00036 16.3781C6.59683 16.3781 6.31264 16.3694 5.36421 16.3258ZM5.28969 0.054504C4.33155 0.098136 3.67683 0.250056 3.10505 0.472536C2.5129 0.702288 2.01162 1.01052 1.51069 1.51063C1.00977 2.01074 0.702316 2.5128 0.472555 3.10493C0.250066 3.67704 0.0981399 4.33138 0.0545062 5.28948C0.0101524 6.2491 0 6.55589 0 9C0 11.4441 0.0101524 11.7509 0.0545062 12.7105C0.0981399 13.6687 0.250066 14.323 0.472555 14.8951C0.702316 15.4868 1.00984 15.9895 1.51069 16.4894C2.01154 16.9893 2.5129 17.2971 3.10505 17.5275C3.67791 17.7499 4.33155 17.9019 5.28969 17.9455C6.24985 17.9891 6.55615 18 9.00036 18C11.4446 18 11.7514 17.9898 12.711 17.9455C13.6692 17.9019 14.3235 17.7499 14.8957 17.5275C15.4875 17.2971 15.9891 16.9895 16.49 16.4894C16.991 15.9893 17.2978 15.4868 17.5282 14.8951C17.7507 14.323 17.9033 13.6686 17.9462 12.7105C17.9898 11.7502 18 11.4441 18 9C18 6.55589 17.9898 6.2491 17.9462 5.28948C17.9026 4.3313 17.7507 3.67668 17.5282 3.10493C17.2978 2.51316 16.9902 2.01154 16.49 1.51063C15.9899 1.00973 15.4875 0.702288 14.8964 0.472536C14.3235 0.250056 13.6692 0.097416 12.7117 0.054504C11.7521 0.010872 11.4453 0 9.00108 0C6.55687 0 6.24985 0.010152 5.28969 0.054504Z"/></symbol><symbol viewBox="0 0 20 20" fill="none" id="svg-phone"><path clip-rule="evenodd" d="M2.11143 2.75015C3.24419 1.55893 3.64452 1.22482 4.12723 1.06933C4.46129 0.981944 4.81164 0.977092 5.148 1.05519C5.5908 1.1837 5.70794 1.28136 7.15993 2.72573C8.43557 3.99406 8.56301 4.13156 8.68529 4.37957C8.91912 4.8149 8.95565 5.32918 8.7857 5.7931C8.65698 6.14648 8.47419 6.38036 7.70057 7.15523L7.19597 7.66025C7.06346 7.79468 7.03232 7.99883 7.11874 8.16655C8.23983 10.0759 9.83037 11.6682 11.7399 12.7927C11.9597 12.9101 12.2303 12.8722 12.4092 12.6988L12.8945 12.2221C13.1945 11.9152 13.5121 11.626 13.8458 11.356C14.3699 11.0347 15.0229 11.0061 15.5732 11.2802C15.8423 11.4087 15.9311 11.4884 17.2466 12.7991C18.6034 14.1496 18.642 14.1921 18.7913 14.5017C19.0723 15.0144 19.0694 15.6353 18.7836 16.1453C18.6381 16.4331 18.5493 16.5372 17.786 17.316C17.3252 17.7863 16.8914 18.2155 16.8219 18.2784C16.1921 18.7989 15.3842 19.0543 14.5692 18.9904C13.078 18.8547 11.6347 18.3946 10.3407 17.6424C7.47418 16.1263 5.03395 13.9173 3.2429 11.2172C2.8528 10.6521 2.50598 10.0585 2.2054 9.4413C1.39906 8.06165 0.982659 6.4895 1.00055 4.89229C1.06211 4.05672 1.46351 3.28269 2.11143 2.75015Z" stroke="currentColor" stroke-width="1.5" stroke-linecap="round" stroke-linejoin="round"/></symbol><symbol viewBox="0 0 24 24" fill="none" id="svg-search"><path clip-rule="evenodd" d="M5 11.1455C4.99956 8.21437 7.06975 5.69108 9.94452 5.11883C12.8193 4.54659 15.698 6.08477 16.82 8.79267C17.9421 11.5006 16.995 14.624 14.558 16.2528C12.121 17.8815 8.87287 17.562 6.8 15.4895C5.64763 14.3376 5.00014 12.775 5 11.1455Z" stroke="#7D818E" stroke-width="1.5" stroke-linecap="round" stroke-linejoin="round"/><path d="M15.4883 15.4907L18.9993 19.0017" stroke="#7D818E" stroke-width="1.5" stroke-linecap="round" stroke-linejoin="round"/></symbol><symbol viewBox="0 0 18 12" fill="currentColor" id="svg-vk"><path fill-rule="evenodd" clip-rule="evenodd" d="M17.587 0.812527C17.7122 0.344211 17.587 0 16.9915 0H15.0223C14.5215 0 14.2908 0.297316 14.1657 0.625263C14.1657 0.625263 13.1642 3.36521 11.7455 5.145C11.2865 5.66021 11.0779 5.82395 10.8276 5.82395C10.7024 5.82395 10.5212 5.66021 10.5212 5.1919V0.812527C10.5212 0.250422 10.3759 0 9.95858 0H6.8641C6.55128 0 6.36308 0.260842 6.36308 0.508106C6.36308 1.041 7.07228 1.16384 7.14542 2.66258V5.91789C7.14542 6.63158 7.03064 6.76105 6.78027 6.76105C6.11271 6.76105 4.48895 4.00863 3.52573 0.859421C3.33697 0.247263 3.14764 0 2.64437 0H0.675158C0.112526 0 0 0.297316 0 0.625263C0 1.21074 0.667702 4.11474 3.10854 7.95537C4.73595 10.578 7.02839 12 9.11463 12C10.3665 12 10.5212 11.6842 10.5212 11.1403V9.15789C10.5212 8.52632 10.6398 8.40032 11.036 8.40032C11.3283 8.40032 11.8289 8.56421 12.9973 9.82879C14.3325 11.3274 14.5525 12 15.3036 12H17.2728C17.8354 12 18.1167 11.6842 17.9544 11.061C17.7769 10.4398 17.1394 9.53889 16.2935 8.47058C15.8346 7.86158 15.146 7.20584 14.9376 6.87805C14.6454 6.45647 14.7288 6.26921 14.9376 5.89468C14.9376 5.89468 17.3366 2.10079 17.587 0.812685V0.812527Z"/></symbol></svg>