<svg width="22" height="21" viewBox="0 0 22 21" fill="none" xmlns="http://www.w3.org/2000/svg">
<path fill-rule="evenodd" clip-rule="evenodd" d="M10.6668 14.0302C10.6467 15.0054 9.84326 15.7817 8.86787 15.7683C7.89247 15.755 7.11065 14.957 7.11723 13.9815C7.12381 13.0061 7.91632 12.2187 8.89181 12.2185C9.36744 12.2233 9.82166 12.4169 10.1545 12.7567C10.4874 13.0965 10.6717 13.5545 10.6668 14.0302V14.0302Z" stroke="#0093A2" stroke-width="1.5" stroke-linecap="round" stroke-linejoin="round"/>
<path fill-rule="evenodd" clip-rule="evenodd" d="M19.1199 14.0302C19.0998 15.0054 18.2964 15.7817 17.321 15.7683C16.3456 15.755 15.5638 14.957 15.5704 13.9815C15.5769 13.0061 16.3694 12.2187 17.3449 12.2185C17.8206 12.2233 18.2748 12.4169 18.6077 12.7567C18.9406 13.0965 19.1248 13.5545 19.1199 14.0302V14.0302Z" stroke="#0093A2" stroke-width="1.5" stroke-linecap="round" stroke-linejoin="round"/>
<path d="M15.3617 14.7802C15.7759 14.7802 16.1117 14.4444 16.1117 14.0302C16.1117 13.616 15.7759 13.2802 15.3617 13.2802V14.7802ZM10.6667 13.2802C10.2525 13.2802 9.91667 13.616 9.91667 14.0302C9.91667 14.4444 10.2525 14.7802 10.6667 14.7802V13.2802ZM14.615 14.0302C14.615 14.4444 14.9508 14.7802 15.365 14.7802C15.7792 14.7802 16.115 14.4444 16.115 14.0302H14.615ZM16.115 9.641C16.115 9.22679 15.7792 8.891 15.365 8.891C14.9508 8.891 14.615 9.22679 14.615 9.641H16.115ZM15.365 13.2802C14.9508 13.2802 14.615 13.616 14.615 14.0302C14.615 14.4444 14.9508 14.7802 15.365 14.7802V13.2802ZM15.5742 14.7802C15.9884 14.7802 16.3242 14.4444 16.3242 14.0302C16.3242 13.616 15.9884 13.2802 15.5742 13.2802V14.7802ZM19.1083 13.2803C18.6942 13.2891 18.3656 13.6319 18.3743 14.046C18.3831 14.4601 18.7259 14.7888 19.14 14.78L19.1083 13.2803ZM21 12.0793L21.7499 12.0658C21.7492 12.0262 21.7453 11.9866 21.7383 11.9476L21 12.0793ZM21.3033 9.50928C21.2306 9.10151 20.8411 8.82991 20.4333 8.90266C20.0255 8.97541 19.7539 9.36495 19.8267 9.77273L21.3033 9.50928ZM15.3617 4.98934C14.9475 4.98934 14.6117 5.32512 14.6117 5.73934C14.6117 6.15355 14.9475 6.48934 15.3617 6.48934V4.98934ZM18.3375 5.73934V6.48935L18.3422 6.48932L18.3375 5.73934ZM19.6955 6.31173L19.1553 6.83204L19.6955 6.31173ZM20.2167 7.69017L19.4674 7.65739C19.465 7.7125 19.4686 7.7677 19.4783 7.822L20.2167 7.69017ZM19.8267 9.77284C19.8995 10.1806 20.2891 10.4521 20.6968 10.3793C21.1046 10.3065 21.3761 9.91694 21.3033 9.50917L19.8267 9.77284ZM16.1117 5.73934C16.1117 5.32512 15.7759 4.98934 15.3617 4.98934C14.9475 4.98934 14.6117 5.32512 14.6117 5.73934H16.1117ZM14.6117 9.64101C14.6117 10.0552 14.9475 10.391 15.3617 10.391C15.7759 10.391 16.1117 10.0552 16.1117 9.64101H14.6117ZM14.6117 5.73934C14.6117 6.15355 14.9475 6.48934 15.3617 6.48934C15.7759 6.48934 16.1117 6.15355 16.1117 5.73934H14.6117ZM15.3617 5.07267L14.6117 5.06775V5.07267H15.3617ZM14.475 4.17517L14.4792 3.42517H14.475V4.17517ZM6.4875 4.17517V3.42516L6.484 3.42518L6.4875 4.17517ZM5.85821 4.43928L5.32541 3.91143V3.91143L5.85821 4.43928ZM5.6 5.071H6.35001L6.34999 5.06749L5.6 5.071ZM5.6 13.1335L6.35 13.137V13.1335H5.6ZM5.85821 13.7652L5.32541 14.2931H5.32541L5.85821 13.7652ZM6.4875 14.0293L6.484 14.7793H6.4875V14.0293ZM7.11333 14.7793C7.52755 14.7793 7.86333 14.4436 7.86333 14.0293C7.86333 13.6151 7.52755 13.2793 7.11333 13.2793V14.7793ZM15.3633 8.89017C14.9491 8.89017 14.6133 9.22596 14.6133 9.64017C14.6133 10.0544 14.9491 10.3902 15.3633 10.3902V8.89017ZM20.5667 10.3902C20.9809 10.3902 21.3167 10.0544 21.3167 9.64017C21.3167 9.22596 20.9809 8.89017 20.5667 8.89017V10.3902ZM1 5.09184C0.585786 5.09184 0.25 5.42762 0.25 5.84184C0.25 6.25605 0.585786 6.59184 1 6.59184V5.09184ZM3.60833 6.59184C4.02255 6.59184 4.35833 6.25605 4.35833 5.84184C4.35833 5.42762 4.02255 5.09184 3.60833 5.09184V6.59184ZM1.83333 7.59184C1.41912 7.59184 1.08333 7.92762 1.08333 8.34184C1.08333 8.75605 1.41912 9.09184 1.83333 9.09184V7.59184ZM3.5 9.09184C3.91421 9.09184 4.25 8.75605 4.25 8.34184C4.25 7.92762 3.91421 7.59184 3.5 7.59184V9.09184ZM2.34167 10.0918C1.92745 10.0918 1.59167 10.4276 1.59167 10.8418C1.59167 11.2561 1.92745 11.5918 2.34167 11.5918V10.0918ZM3.5 11.5918C3.91421 11.5918 4.25 11.2561 4.25 10.8418C4.25 10.4276 3.91421 10.0918 3.5 10.0918V11.5918ZM15.3617 13.2802H10.6667V14.7802H15.3617V13.2802ZM16.115 14.0302V9.641H14.615V14.0302H16.115ZM15.365 14.7802H15.5742V13.2802H15.365V14.7802ZM19.14 14.78C20.6092 14.7489 21.7764 13.5351 21.7499 12.0658L20.2501 12.0929C20.2617 12.7357 19.7511 13.2667 19.1083 13.2803L19.14 14.78ZM21.7383 11.9476L21.3033 9.50928L19.8267 9.77273L20.2617 12.2111L21.7383 11.9476ZM15.3617 6.48934H18.3375V4.98934H15.3617V6.48934ZM18.3422 6.48932C18.6488 6.48739 18.9427 6.61127 19.1553 6.83204L20.2356 5.79141C19.738 5.27475 19.0501 4.98483 18.3328 4.98935L18.3422 6.48932ZM19.1553 6.83204C19.368 7.05281 19.4808 7.35115 19.4674 7.65739L20.9659 7.72295C20.9973 7.00626 20.7333 6.30807 20.2356 5.79141L19.1553 6.83204ZM19.4783 7.822L19.8267 9.77284L21.3033 9.50917L20.955 7.55834L19.4783 7.822ZM14.6117 5.73934V9.64101H16.1117V5.73934H14.6117ZM16.1117 5.73934V5.07267H14.6117V5.73934H16.1117ZM16.1117 5.07759C16.1145 4.64192 15.9441 4.22299 15.6379 3.91306L14.5708 4.96726C14.5972 4.99401 14.6119 5.03016 14.6117 5.06775L16.1117 5.07759ZM15.6379 3.91306C15.3317 3.60313 14.9149 3.42762 14.4792 3.42518L14.4708 4.92516C14.5084 4.92537 14.5444 4.94051 14.5708 4.96726L15.6379 3.91306ZM14.475 3.42517H6.4875V4.92517H14.475V3.42517ZM6.484 3.42518C6.0486 3.42721 5.63185 3.60212 5.32541 3.91143L6.39102 4.96712C6.41746 4.94043 6.45342 4.92534 6.491 4.92516L6.484 3.42518ZM5.32541 3.91143C5.01898 4.22074 4.84797 4.63912 4.85001 5.07452L6.34999 5.06749C6.34982 5.02992 6.36457 4.99382 6.39102 4.96712L5.32541 3.91143ZM4.85 5.071V13.1335H6.35V5.071H4.85ZM4.85001 13.13C4.84797 13.5654 5.01898 13.9838 5.32541 14.2931L6.39102 13.2374C6.36457 13.2107 6.34982 13.1746 6.34999 13.137L4.85001 13.13ZM5.32541 14.2931C5.63185 14.6024 6.0486 14.7773 6.484 14.7793L6.491 13.2793C6.45342 13.2792 6.41746 13.2641 6.39102 13.2374L5.32541 14.2931ZM6.4875 14.7793H7.11333V13.2793H6.4875V14.7793ZM15.3633 10.3902H20.5667V8.89017H15.3633V10.3902ZM1 6.59184H3.60833V5.09184H1V6.59184ZM1.83333 9.09184H3.5V7.59184H1.83333V9.09184ZM2.34167 11.5918H3.5V10.0918H2.34167V11.5918Z" fill="#0093A2"/>
</svg>
