<svg width="18" height="16" viewBox="0 0 18 16" fill="none" xmlns="http://www.w3.org/2000/svg">
<path d="M8.99999 3.48405C5.37633 -0.894597 1.55034 2.21662 1.5 5.57044C1.5 10.5634 7.56608 14.6615 8.99999 14.6615C10.4339 14.6615 16.5 10.5634 16.5 5.57044C16.4497 2.21662 12.6236 -0.894597 8.99999 3.48405Z" fill="white"/>
<path d="M1.5 5.57044L0.75 5.55919V5.57044H1.5ZM8.99999 3.48405L8.42219 3.96222C8.56467 4.13439 8.77651 4.23405 8.99999 4.23405C9.22347 4.23405 9.4353 4.13439 9.57779 3.96222L8.99999 3.48405ZM16.5 5.57044L17.2501 5.57044L17.2499 5.55919L16.5 5.57044ZM2.24992 5.5817C2.27132 4.15551 3.1029 2.82316 4.22282 2.30922C4.76666 2.05965 5.39521 1.99211 6.08269 2.20702C6.77939 2.4248 7.58326 2.9485 8.42219 3.96222L9.57779 3.00588C8.60489 1.83027 7.57164 1.10088 6.53024 0.775337C5.47962 0.446912 4.46909 0.545793 3.59719 0.945921C1.88561 1.73138 0.779018 3.63156 0.750084 5.55919L2.24992 5.5817ZM8.99999 13.9115C8.96622 13.9115 8.82196 13.8908 8.54571 13.7798C8.28807 13.6762 7.96942 13.5163 7.60907 13.3001C6.88892 12.8679 6.04207 12.2351 5.23509 11.4506C3.59902 9.85996 2.25 7.76995 2.25 5.57044H0.75C0.75 8.36384 2.43402 10.8194 4.18947 12.5261C5.07824 13.3902 6.01678 14.0939 6.8373 14.5863C7.24729 14.8323 7.6378 15.0315 7.98636 15.1716C8.3163 15.3042 8.67528 15.4115 8.99999 15.4115V13.9115ZM17.2499 5.55919C17.221 3.63156 16.1144 1.73138 14.4028 0.94592C13.5309 0.545793 12.5204 0.446913 11.4697 0.775337C10.4283 1.10088 9.39509 1.83027 8.42219 3.00588L9.57779 3.96222C10.4167 2.94851 11.2206 2.42481 11.9173 2.20702C12.6048 1.99211 13.2333 2.05965 13.7772 2.30922C14.8971 2.82316 15.7287 4.15551 15.7501 5.5817L17.2499 5.55919ZM8.99999 15.4115C9.32469 15.4115 9.68367 15.3042 10.0136 15.1716C10.3622 15.0315 10.7527 14.8323 11.1627 14.5863C11.9832 14.094 12.9217 13.3902 13.8105 12.5261C15.566 10.8194 17.25 8.36384 17.25 5.57044H15.75C15.75 7.76995 14.401 9.85996 12.7649 11.4506C11.9579 12.2351 11.1111 12.8679 10.3909 13.3001C10.0306 13.5163 9.71191 13.6762 9.45427 13.7798C9.17801 13.8908 9.03376 13.9115 8.99999 13.9115V15.4115Z" fill="#353949"/>
</svg>
