<svg width="20" height="20" viewBox="0 0 16 17" fill="none" xmlns="http://www.w3.org/2000/svg">
<path d="M7.99999 4.4016C5.10107 0.898684 2.04027 3.38766 2 6.07072C2 10.065 6.85286 13.3436 7.99999 13.3436C9.14712 13.3436 14 10.065 14 6.07072C13.9597 3.38766 10.8989 0.898684 7.99999 4.4016Z" fill="#0093A2"/>
<path d="M2 6.07072L1.25 6.05946V6.07072H2ZM7.99999 4.4016L7.42219 4.87977C7.56467 5.05194 7.77651 5.1516 7.99999 5.1516C8.22347 5.1516 8.43531 5.05194 8.57779 4.87977L7.99999 4.4016ZM14 6.07072H14.7501L14.7499 6.05946L14 6.07072ZM2.74992 6.08197C2.76629 4.99116 3.40405 3.98207 4.24082 3.59807C4.64308 3.41346 5.10772 3.36257 5.6214 3.52314C6.14429 3.6866 6.76445 4.08499 7.42219 4.87977L8.57779 3.92343C7.78607 2.96676 6.93654 2.36268 6.06894 2.09146C5.19214 1.81737 4.34552 1.89961 3.61519 2.23477C2.18676 2.89029 1.27398 4.46721 1.25008 6.05946L2.74992 6.08197ZM7.99999 12.5936C8.00207 12.5936 7.90814 12.5857 7.6925 12.499C7.49548 12.4198 7.24775 12.2958 6.96443 12.1258C6.39835 11.7861 5.73004 11.287 5.09263 10.6673C3.79572 9.40638 2.75 7.77094 2.75 6.07072H1.25C1.25 8.36482 2.63071 10.3658 4.04701 11.7428C4.76621 12.442 5.52621 13.0121 6.19267 13.412C6.52562 13.6118 6.84522 13.7751 7.13315 13.8908C7.40248 13.999 7.71113 14.0936 7.99999 14.0936V12.5936ZM14.7499 6.05946C14.726 4.46721 13.8132 2.89029 12.3848 2.23477C11.6545 1.89961 10.8078 1.81737 9.93104 2.09146C9.06344 2.36268 8.21391 2.96676 7.42219 3.92343L8.57779 4.87977C9.23553 4.08499 9.8557 3.6866 10.3786 3.52314C10.8923 3.36257 11.3569 3.41346 11.7592 3.59807C12.5959 3.98207 13.2337 4.99116 13.2501 6.08197L14.7499 6.05946ZM7.99999 14.0936C8.28885 14.0936 8.5975 13.999 8.86683 13.8908C9.15476 13.7751 9.47437 13.6118 9.80731 13.412C10.4738 13.0121 11.2338 12.442 11.953 11.7428C13.3693 10.3658 14.75 8.36483 14.75 6.07072H13.25C13.25 7.77093 12.2043 9.40638 10.9074 10.6673C10.2699 11.287 9.60164 11.7861 9.03556 12.1258C8.75223 12.2958 8.5045 12.4198 8.30748 12.499C8.09185 12.5857 7.99791 12.5936 7.99999 12.5936V14.0936Z" fill="#0093A2"/>
</svg>
