<svg style="display: none;" aria-hidden="true" xmlns="http://www.w3.org/2000/svg" xmlns:xlink="http://www.w3.org/1999/xlink"><symbol viewBox="0 0 24 24" fill="none" id="svg-arrow-left"><path clip-rule="evenodd" d="M13.585 7.30533L8.52813 10.8772C8.19678 11.0974 8 11.4538 8 11.8337C8 12.2136 8.19678 12.57 8.52813 12.7902L13.585 16.6948C14.0128 17.0146 14.5939 17.0893 15.0983 16.8894C15.6026 16.6895 15.9489 16.2472 16 15.7377L16 8.25998C15.948 7.75089 15.6014 7.30941 15.0972 7.1101C14.593 6.91078 14.0124 6.98574 13.585 7.30533Z" stroke="#353949" stroke-width="1.5" stroke-linecap="round" stroke-linejoin="round"/></symbol><symbol viewBox="0 0 24 24" fill="none" id="svg-arrow-right"><path clip-rule="evenodd" d="M10.415 7.30533L15.4719 10.8772C15.8032 11.0974 16 11.4538 16 11.8337C16 12.2136 15.8032 12.57 15.4719 12.7902L10.415 16.6948C9.98722 17.0146 9.4061 17.0893 8.90173 16.8894C8.39737 16.6895 8.05109 16.2472 8 15.7377L8 8.25998C8.05197 7.75089 8.39858 7.30941 8.90279 7.1101C9.40699 6.91078 9.98759 6.98574 10.415 7.30533Z" stroke="#353949" stroke-width="1.5" stroke-linecap="round" stroke-linejoin="round"/></symbol><symbol viewBox="0 0 16 10" fill="none" id="svg-arrow-title"><path d="M9.75 2.0251H10.5C10.5 2.01035 10.4996 1.9956 10.4987 1.98087L9.75 2.0251ZM10.2847 1.10156L9.95032 0.43023L10.2847 1.10156ZM11.344 1.2311L11.8446 0.672592C11.8399 0.668385 11.8351 0.664237 11.8303 0.66015L11.344 1.2311ZM14.65 4.1941L15.1569 3.64131L15.1506 3.63559L14.65 4.1941ZM14.65 5.7831L15.1507 6.34157L15.1569 6.33586L14.65 5.7831ZM11.344 8.7471L11.8303 9.31806C11.8352 9.31394 11.8399 9.30977 11.8447 9.30553L11.344 8.7471ZM10.2847 8.87665L10.6191 8.20533L10.6191 8.20533L10.2847 8.87665ZM9.75 7.9531L10.4987 7.99734C10.4996 7.98261 10.5 7.96786 10.5 7.9531H9.75ZM9.75 5.7391C10.1642 5.7391 10.5 5.40332 10.5 4.9891C10.5 4.57489 10.1642 4.2391 9.75 4.2391V5.7391ZM1 4.2391C0.585786 4.2391 0.25 4.57489 0.25 4.9891C0.25 5.40332 0.585786 5.7391 1 5.7391V4.2391ZM10.5 4.9891V2.0251H9V4.9891H10.5ZM10.4987 1.98087C10.4935 1.89368 10.5409 1.81182 10.6191 1.77288L9.95032 0.43023C9.33418 0.737141 8.96071 1.38219 9.00131 2.06934L10.4987 1.98087ZM10.6191 1.77288C10.6973 1.73394 10.7912 1.74542 10.8577 1.80206L11.8303 0.66015C11.3063 0.213801 10.5665 0.123319 9.95032 0.43023L10.6191 1.77288ZM10.8434 1.78961L14.1494 4.75261L15.1506 3.63559L11.8446 0.672592L10.8434 1.78961ZM14.1431 4.74686C14.2108 4.80899 14.2494 4.89669 14.2494 4.9886H15.7494C15.7494 4.47634 15.5345 3.98757 15.1569 3.64134L14.1431 4.74686ZM14.2494 4.9886C14.2494 5.08052 14.2108 5.16822 14.1431 5.23034L15.1569 6.33586C15.5345 5.98963 15.7494 5.50087 15.7494 4.9886H14.2494ZM14.1493 5.22468L10.8433 8.18868L11.8447 9.30553L15.1507 6.34153L14.1493 5.22468ZM10.8577 8.17615C10.7912 8.23279 10.6973 8.24427 10.6191 8.20533L9.95032 9.54797C10.5665 9.85489 11.3063 9.7644 11.8303 9.31806L10.8577 8.17615ZM10.6191 8.20533C10.5409 8.16638 10.4935 8.08453 10.4987 7.99734L9.00131 7.90887C8.96071 8.59602 9.33418 9.24106 9.95032 9.54798L10.6191 8.20533ZM10.5 7.9531V4.9891H9V7.9531H10.5ZM9.75 4.2391H1V5.7391H9.75V4.2391Z" fill="#353949"/></symbol><symbol viewBox="0 0 24 24" fill="currentColor" id="svg-basket-navbar"><path d="M4.14991 19.0586C3.40314 16.183 3.10756 12.6607 3.0256 10.7486C3.00195 10.1968 3.44772 9.75 4 9.75H20C20.5523 9.75 20.998 10.1968 20.9744 10.7486C20.8924 12.6607 20.5969 16.183 19.8501 19.0586C19.6501 19.8287 19.0868 20.4292 18.3043 20.5736C17.133 20.7896 15.1135 21 12 21C8.88651 21 6.86695 20.7896 5.69568 20.5736C4.91323 20.4292 4.3499 19.8287 4.14991 19.0586Z" fill="#F2F6F7"/><path d="M3.0256 10.7486L2.27629 10.7807L3.0256 10.7486ZM4.14991 19.0586L4.87583 18.8701L4.14991 19.0586ZM5.69568 20.5736L5.83173 19.836H5.83173L5.69568 20.5736ZM20.9744 10.7486L21.7237 10.7807V10.7807L20.9744 10.7486ZM19.8501 19.0586L20.576 19.2471L19.8501 19.0586ZM18.3043 20.5736L18.1683 19.836L18.3043 20.5736ZM2.27629 10.7807C2.35909 12.7125 2.6576 16.296 3.42399 19.2471L4.87583 18.8701C4.14868 16.07 3.85603 12.6089 3.77491 10.7165L2.27629 10.7807ZM5.55963 21.3111C6.78925 21.5379 8.85701 21.75 12 21.75V20.25C8.91602 20.25 6.94465 20.0413 5.83173 19.836L5.55963 21.3111ZM20.2251 10.7165C20.144 12.6089 19.8513 16.07 19.1242 18.8701L20.576 19.2471C21.3424 16.296 21.6409 12.7125 21.7237 10.7807L20.2251 10.7165ZM18.1683 19.836C17.0553 20.0413 15.084 20.25 12 20.25V21.75C15.143 21.75 17.2107 21.5379 18.4404 21.3111L18.1683 19.836ZM4 10.5H20V9H4V10.5ZM19.1242 18.8701C18.986 19.4022 18.6218 19.7523 18.1683 19.836L18.4404 21.3111C19.5517 21.1061 20.3142 20.2552 20.576 19.2471L19.1242 18.8701ZM21.7237 10.7807C21.7664 9.78447 20.9608 9 20 9V10.5C20.1438 10.5 20.2297 10.6092 20.2251 10.7165L21.7237 10.7807ZM3.42399 19.2471C3.68577 20.2552 4.44831 21.1061 5.55963 21.3111L5.83173 19.836C5.37815 19.7523 5.01403 19.4022 4.87583 18.8701L3.42399 19.2471ZM3.77491 10.7165C3.77032 10.6092 3.85623 10.5 4 10.5V9C3.0392 9 2.23359 9.78447 2.27629 10.7807L3.77491 10.7165Z"/><path d="M6 9.75C6 10.1642 6.33579 10.5 6.75 10.5C7.16421 10.5 7.5 10.1642 7.5 9.75H6ZM16.5 9.75C16.5 10.1642 16.8358 10.5 17.25 10.5C17.6642 10.5 18 10.1642 18 9.75H16.5ZM7.5 9.75V8H6V9.75H7.5ZM11.75 3.75H12.25V2.25H11.75V3.75ZM16.5 8V9.75H18V8H16.5ZM12.25 3.75C14.5972 3.75 16.5 5.65279 16.5 8H18C18 4.82436 15.4256 2.25 12.25 2.25V3.75ZM7.5 8C7.5 5.65279 9.40279 3.75 11.75 3.75V2.25C8.57436 2.25 6 4.82436 6 8H7.5Z"/><path d="M9 14.25V16.5M15 14.25V16.5" stroke="currentColor" stroke-width="1.5" stroke-linecap="round" stroke-linejoin="round"/></symbol><symbol viewBox="0 0 20 21" fill="currentColor" id="svg-cart"><path d="M15.0499 17.1855L14.9264 16.4457L15.0499 17.1855ZM17.4711 9.12915L16.7219 9.09325L17.4711 9.12915ZM4.95013 17.1855L4.82669 17.9253L4.95013 17.1855ZM1.77977 9.16504C1.85636 10.7633 2.09773 13.5225 2.67925 15.8666L4.13512 15.5055C3.58787 13.2995 3.35273 10.6518 3.27805 9.09325L1.77977 9.16504ZM4.82669 17.9253C5.87826 18.1007 7.54921 18.2551 10 18.2551V16.7551C7.60602 16.7551 6.02145 16.6039 5.07356 16.4457L4.82669 17.9253ZM16.7219 9.09325C16.6473 10.6518 16.4121 13.2995 15.8649 15.5055L17.3207 15.8666C17.9023 13.5225 18.1436 10.7633 18.2202 9.16504L16.7219 9.09325ZM14.9264 16.4457C13.9785 16.6039 12.394 16.7551 10 16.7551V18.2551C12.4508 18.2551 14.1217 18.1007 15.1733 17.9253L14.9264 16.4457ZM3.5 8.88013H16.5V7.38013H3.5V8.88013ZM15.8649 15.5055C15.7348 16.03 15.3754 16.3708 14.9264 16.4457L15.1733 17.9253C16.294 17.7383 17.0677 16.8866 17.3207 15.8666L15.8649 15.5055ZM18.2202 9.16504C18.2681 8.16625 17.461 7.38013 16.5 7.38013V8.88013C16.6436 8.88013 16.7269 8.98874 16.7219 9.09325L18.2202 9.16504ZM2.67925 15.8666C2.93229 16.8866 3.70604 17.7383 4.82669 17.9253L5.07356 16.4457C4.62462 16.3708 4.26523 16.03 4.13512 15.5055L2.67925 15.8666ZM3.27805 9.09325C3.27305 8.98874 3.35643 8.88013 3.5 8.88013V7.38013C2.539 7.38013 1.73192 8.16625 1.77977 9.16504L3.27805 9.09325Z"/><path d="M4.875 8.13013C4.875 8.54434 5.21079 8.88013 5.625 8.88013C6.03921 8.88013 6.375 8.54434 6.375 8.13013H4.875ZM13.625 8.13013C13.625 8.54434 13.9608 8.88013 14.375 8.88013C14.7892 8.88013 15.125 8.54434 15.125 8.13013H13.625ZM6.375 8.13013V6.88012H4.875V8.13013H6.375ZM13.625 6.88012V8.13013H15.125V6.88012H13.625ZM10 3.25513C12.002 3.25513 13.625 4.87809 13.625 6.88012H15.125C15.125 4.04967 12.8305 1.75513 10 1.75513V3.25513ZM6.375 6.88012C6.375 4.87809 7.99797 3.25513 10 3.25513V1.75513C7.16954 1.75513 4.875 4.04967 4.875 6.88012H6.375Z"/><path d="M7.5 11.8801V13.7551M12.5 11.8801V13.7551" stroke="CurrentColor" stroke-width="1.5" stroke-linecap="round" stroke-linejoin="round"/></symbol><symbol viewBox="0 0 24 24" fill="none" id="svg-close"><path d="M6.46967 16.4697C6.17678 16.7626 6.17678 17.2374 6.46967 17.5303C6.76256 17.8232 7.23744 17.8232 7.53033 17.5303L6.46967 16.4697ZM12.5303 12.5303C12.8232 12.2374 12.8232 11.7626 12.5303 11.4697C12.2374 11.1768 11.7626 11.1768 11.4697 11.4697L12.5303 12.5303ZM11.4697 11.4697C11.1768 11.7626 11.1768 12.2374 11.4697 12.5303C11.7626 12.8232 12.2374 12.8232 12.5303 12.5303L11.4697 11.4697ZM17.5303 7.53033C17.8232 7.23744 17.8232 6.76256 17.5303 6.46967C17.2374 6.17678 16.7626 6.17678 16.4697 6.46967L17.5303 7.53033ZM12.5303 11.4697C12.2374 11.1768 11.7626 11.1768 11.4697 11.4697C11.1768 11.7626 11.1768 12.2374 11.4697 12.5303L12.5303 11.4697ZM16.4697 17.5303C16.7626 17.8232 17.2374 17.8232 17.5303 17.5303C17.8232 17.2374 17.8232 16.7626 17.5303 16.4697L16.4697 17.5303ZM11.4697 12.5303C11.7626 12.8232 12.2374 12.8232 12.5303 12.5303C12.8232 12.2374 12.8232 11.7626 12.5303 11.4697L11.4697 12.5303ZM7.53033 6.46967C7.23744 6.17678 6.76256 6.17678 6.46967 6.46967C6.17678 6.76256 6.17678 7.23744 6.46967 7.53033L7.53033 6.46967ZM7.53033 17.5303L12.5303 12.5303L11.4697 11.4697L6.46967 16.4697L7.53033 17.5303ZM12.5303 12.5303L17.5303 7.53033L16.4697 6.46967L11.4697 11.4697L12.5303 12.5303ZM11.4697 12.5303L16.4697 17.5303L17.5303 16.4697L12.5303 11.4697L11.4697 12.5303ZM12.5303 11.4697L7.53033 6.46967L6.46967 7.53033L11.4697 12.5303L12.5303 11.4697Z" fill="#fff"/></symbol><symbol viewBox="0 0 24 24" fill="none" id="svg-copy"><rect x="6.996" y="6.998" width="14.006" height="14.006" rx="3" stroke="#fff" stroke-width="1.5" stroke-linecap="round" stroke-linejoin="round"/><path d="M6.99776 17.0019H5.99734C4.3398 17.0019 2.99609 15.6582 2.99609 14.0007V5.99734C2.99609 4.3398 4.3398 2.99609 5.99734 2.99609H14.0007C15.6582 2.99609 17.0019 4.3398 17.0019 5.99734V6.99776" stroke="#fff" stroke-width="1.5" stroke-linecap="round" stroke-linejoin="round"/></symbol><symbol viewBox="0 0 20 18" fill="currentColor" id="svg-favorite-navbar"><path d="M9.99998 3.58704C5.6516 -1.66734 1.06041 2.06612 1 6.09071C1 12.0822 8.2793 17 9.99998 17C11.7207 17 19 12.0822 19 6.09071C18.9396 2.06612 14.3484 -1.66734 9.99998 3.58704Z" fill="#F2F6F7"/><path d="M1 6.09071L0.25 6.07945V6.09071H1ZM9.99998 3.58704L9.42219 4.06521C9.56467 4.23738 9.77651 4.33704 9.99998 4.33704C10.2235 4.33704 10.4353 4.23738 10.5778 4.06521L9.99998 3.58704ZM19 6.09071H19.7501L19.7499 6.07945L19 6.09071ZM1.74992 6.10196C1.77636 4.34039 2.80175 2.68479 4.20482 2.04091C4.89023 1.72637 5.68269 1.64218 6.54398 1.91143C7.41449 2.18355 8.40208 2.83256 9.42219 4.06521L10.5778 3.10887C9.4237 1.71433 8.20674 0.859628 6.99153 0.479749C5.76711 0.096991 4.59267 0.212514 3.57919 0.677612C1.58446 1.59301 0.284052 3.81644 0.250084 6.07945L1.74992 6.10196ZM9.99998 16.25C9.93037 16.25 9.73579 16.2165 9.39891 16.0811C9.08065 15.9532 8.69109 15.7573 8.2537 15.4949C7.37949 14.9703 6.3541 14.2039 5.37754 13.2544C3.40233 11.3341 1.75 8.78951 1.75 6.09071H0.25C0.25 9.3834 2.23732 12.2935 4.33193 14.3299C5.39027 15.3589 6.50735 16.1963 7.48194 16.7811C7.96896 17.0733 8.43039 17.3084 8.83957 17.4729C9.23013 17.6299 9.63943 17.75 9.99998 17.75V16.25ZM19.7499 6.07945C19.7159 3.81644 18.4155 1.59301 16.4208 0.677611C15.4073 0.212514 14.2329 0.0969911 13.0084 0.479749C11.7932 0.859628 10.5763 1.71433 9.42218 3.10887L10.5778 4.06521C11.5979 2.83256 12.5855 2.18355 13.456 1.91143C14.3173 1.64218 15.1098 1.72637 15.7952 2.04091C17.1982 2.68479 18.2236 4.34039 18.2501 6.10196L19.7499 6.07945ZM9.99998 17.75C10.3605 17.75 10.7698 17.6299 11.1604 17.4729C11.5696 17.3084 12.031 17.0733 12.518 16.7811C13.4926 16.1963 14.6097 15.3589 15.6681 14.3299C17.7627 12.2935 19.75 9.3834 19.75 6.09071H18.25C18.25 8.78951 16.5977 11.3341 14.6224 13.2544C13.6459 14.2039 12.6205 14.9703 11.7463 15.4949C11.3089 15.7573 10.9193 15.9532 10.6011 16.0811C10.2642 16.2165 10.0696 16.25 9.99998 16.25V17.75Z"/></symbol><symbol viewBox="0 0 24 24" fill="currentColor" id="svg-home-navbar"><path d="M2.4424 13.5269C2.16539 13.8348 2.19046 14.309 2.49841 14.586C2.80637 14.8631 3.28058 14.838 3.5576 14.53L2.4424 13.5269ZM20.4424 14.53C20.7194 14.838 21.1936 14.8631 21.5016 14.586C21.8095 14.309 21.8346 13.8348 21.5576 13.5269L20.4424 14.53ZM11.2565 4.84992L11.8141 5.3515L11.2565 4.84992ZM12.7435 4.84992L12.1859 5.3515L12.7435 4.84992ZM3.5576 14.53L11.8141 5.3515L10.6989 4.34833L2.4424 13.5269L3.5576 14.53ZM12.1859 5.3515L20.4424 14.53L21.5576 13.5269L13.3011 4.34833L12.1859 5.3515ZM11.8141 5.3515C11.9135 5.2411 12.0865 5.2411 12.1859 5.3515L13.3011 4.34833C12.6058 3.57549 11.3942 3.57549 10.6989 4.34833L11.8141 5.3515Z"/><path d="M5.76848 10.9567L11.2543 4.83168C11.6518 4.38792 12.3467 4.38792 12.7442 4.83168L18.23 10.9567L18.5163 12.9136C18.7854 14.7536 18.7722 16.6239 18.4772 18.46C18.3348 19.3463 17.5699 19.9981 16.6721 19.9981H7.32636C6.42864 19.9981 5.66374 19.3463 5.52132 18.46C5.22628 16.6239 5.21311 14.7536 5.48225 12.9136L5.76848 10.9567Z" fill="#F2F6F7"/><path d="M5.76848 10.9567L5.2098 10.4563C5.1115 10.566 5.0477 10.7023 5.02638 10.8481L5.76848 10.9567ZM18.23 10.9567L18.9721 10.8481C18.9508 10.7023 18.887 10.566 18.7887 10.4563L18.23 10.9567ZM18.5163 12.9136L17.7741 13.0221L18.5163 12.9136ZM12.7442 4.83168L12.1855 5.33206L12.7442 4.83168ZM16.6721 19.2481H7.32636V20.7481H16.6721V19.2481ZM6.32716 11.457L11.813 5.33206L10.6957 4.3313L5.2098 10.4563L6.32716 11.457ZM12.1855 5.33206L17.6713 11.457L18.7887 10.4563L13.3028 4.3313L12.1855 5.33206ZM17.4879 11.0652L17.7741 13.0221L19.2584 12.805L18.9721 10.8481L17.4879 11.0652ZM6.22435 13.0221L6.51058 11.0652L5.02638 10.8481L4.74014 12.805L6.22435 13.0221ZM6.26182 18.341C5.97888 16.5803 5.96625 14.7867 6.22435 13.0221L4.74014 12.805C4.45996 14.7205 4.47368 16.6676 4.78082 18.579L6.26182 18.341ZM17.7741 13.0221C18.0322 14.7867 18.0196 16.5803 17.7367 18.341L19.2177 18.579C19.5248 16.6676 19.5385 14.7205 19.2584 12.805L17.7741 13.0221ZM11.813 5.33206C11.9124 5.22112 12.0861 5.22112 12.1855 5.33206L13.3028 4.3313C12.6073 3.55471 11.3912 3.55471 10.6957 4.3313L11.813 5.33206ZM7.32636 19.2481C6.79692 19.2481 6.34581 18.8637 6.26182 18.341L4.78082 18.579C4.98167 19.829 6.06036 20.7481 7.32636 20.7481V19.2481ZM16.6721 20.7481C17.9381 20.7481 19.0168 19.829 19.2177 18.579L17.7367 18.341C17.6527 18.8637 17.2016 19.2481 16.6721 19.2481V20.7481Z"/><path d="M11.999 13.5039C13.3252 13.5039 14.4004 14.5342 14.4004 15.8052V20.0003H9.59766V15.8052C9.59766 14.5342 10.6728 13.5039 11.999 13.5039Z" fill="#fff" stroke="currentColor" stroke-width="1.5" stroke-linecap="round" stroke-linejoin="round"/></symbol><symbol viewBox="0 0 18 18" fill="currentColor" id="svg-inst"><path d="M6.00072 9C6.00072 7.34321 7.3435 5.99976 9.00036 5.99976C10.6572 5.99976 12.0007 7.34321 12.0007 9C12.0007 10.6568 10.6572 12.0002 9.00036 12.0002C7.3435 12.0002 6.00072 10.6568 6.00072 9ZM4.37878 9C4.37878 11.5524 6.44786 13.6214 9.00036 13.6214C11.5529 13.6214 13.6219 11.5524 13.6219 9C13.6219 6.4476 11.5529 4.37861 9.00036 4.37861C6.44786 4.37861 4.37878 6.4476 4.37878 9ZM12.7249 4.19537C12.7248 4.40897 12.788 4.6178 12.9066 4.79546C13.0252 4.97311 13.1939 5.1116 13.3912 5.19342C13.5885 5.27525 13.8057 5.29672 14.0152 5.25513C14.2247 5.21354 14.4172 5.11076 14.5683 4.95978C14.7194 4.8088 14.8223 4.6164 14.8641 4.40692C14.9059 4.19744 14.8846 3.98028 14.8029 3.7829C14.7212 3.58552 14.5829 3.4168 14.4053 3.29805C14.2277 3.17931 14.0189 3.11589 13.8053 3.1158H13.8049C13.5186 3.11593 13.244 3.2297 13.0415 3.43212C12.839 3.63454 12.7251 3.90905 12.7249 4.19537ZM5.36421 16.3258C4.48672 16.2858 4.00977 16.1397 3.69281 16.0162C3.2726 15.8526 2.97278 15.6578 2.65755 15.343C2.34233 15.0282 2.1472 14.7287 1.98433 14.3085C1.86077 13.9917 1.7146 13.5146 1.67472 12.6372C1.63108 11.6885 1.62237 11.4035 1.62237 9.00007C1.62237 6.59664 1.6318 6.31246 1.67472 5.36299C1.71468 4.48553 1.86192 4.00939 1.98433 3.69166C2.14792 3.27146 2.34276 2.97166 2.65755 2.65644C2.97235 2.34122 3.27188 2.1461 3.69281 1.98324C4.00962 1.85969 4.48672 1.71353 5.36421 1.67364C6.31292 1.63001 6.59791 1.6213 9.00036 1.6213C11.4028 1.6213 11.6881 1.63073 12.6376 1.67364C13.5151 1.7136 13.9912 1.86084 14.309 1.98324C14.7292 2.1461 15.029 2.34166 15.3442 2.65644C15.6595 2.97122 15.8539 3.27146 16.0175 3.69166C16.141 4.00846 16.2872 4.48553 16.3271 5.36299C16.3707 6.31246 16.3794 6.59664 16.3794 9.00007C16.3794 11.4035 16.3707 11.6877 16.3271 12.6372C16.2871 13.5146 16.1402 13.9915 16.0175 14.3085C15.8539 14.7287 15.659 15.0285 15.3442 15.343C15.0294 15.6575 14.7292 15.8526 14.309 16.0162C13.9922 16.1397 13.5151 16.2859 12.6376 16.3258C11.6889 16.3694 11.4039 16.3781 9.00036 16.3781C6.59683 16.3781 6.31264 16.3694 5.36421 16.3258ZM5.28969 0.054504C4.33155 0.098136 3.67683 0.250056 3.10505 0.472536C2.5129 0.702288 2.01162 1.01052 1.51069 1.51063C1.00977 2.01074 0.702316 2.5128 0.472555 3.10493C0.250066 3.67704 0.0981399 4.33138 0.0545062 5.28948C0.0101524 6.2491 0 6.55589 0 9C0 11.4441 0.0101524 11.7509 0.0545062 12.7105C0.0981399 13.6687 0.250066 14.323 0.472555 14.8951C0.702316 15.4868 1.00984 15.9895 1.51069 16.4894C2.01154 16.9893 2.5129 17.2971 3.10505 17.5275C3.67791 17.7499 4.33155 17.9019 5.28969 17.9455C6.24985 17.9891 6.55615 18 9.00036 18C11.4446 18 11.7514 17.9898 12.711 17.9455C13.6692 17.9019 14.3235 17.7499 14.8957 17.5275C15.4875 17.2971 15.9891 16.9895 16.49 16.4894C16.991 15.9893 17.2978 15.4868 17.5282 14.8951C17.7507 14.323 17.9033 13.6686 17.9462 12.7105C17.9898 11.7502 18 11.4441 18 9C18 6.55589 17.9898 6.2491 17.9462 5.28948C17.9026 4.3313 17.7507 3.67668 17.5282 3.10493C17.2978 2.51316 16.9902 2.01154 16.49 1.51063C15.9899 1.00973 15.4875 0.702288 14.8964 0.472536C14.3235 0.250056 13.6692 0.097416 12.7117 0.054504C11.7521 0.010872 11.4453 0 9.00108 0C6.55687 0 6.24985 0.010152 5.28969 0.054504Z"/></symbol><symbol viewBox="0 0 20 20" fill="none" id="svg-phone"><path clip-rule="evenodd" d="M2.11143 2.75015C3.24419 1.55893 3.64452 1.22482 4.12723 1.06933C4.46129 0.981944 4.81164 0.977092 5.148 1.05519C5.5908 1.1837 5.70794 1.28136 7.15993 2.72573C8.43557 3.99406 8.56301 4.13156 8.68529 4.37957C8.91912 4.8149 8.95565 5.32918 8.7857 5.7931C8.65698 6.14648 8.47419 6.38036 7.70057 7.15523L7.19597 7.66025C7.06346 7.79468 7.03232 7.99883 7.11874 8.16655C8.23983 10.0759 9.83037 11.6682 11.7399 12.7927C11.9597 12.9101 12.2303 12.8722 12.4092 12.6988L12.8945 12.2221C13.1945 11.9152 13.5121 11.626 13.8458 11.356C14.3699 11.0347 15.0229 11.0061 15.5732 11.2802C15.8423 11.4087 15.9311 11.4884 17.2466 12.7991C18.6034 14.1496 18.642 14.1921 18.7913 14.5017C19.0723 15.0144 19.0694 15.6353 18.7836 16.1453C18.6381 16.4331 18.5493 16.5372 17.786 17.316C17.3252 17.7863 16.8914 18.2155 16.8219 18.2784C16.1921 18.7989 15.3842 19.0543 14.5692 18.9904C13.078 18.8547 11.6347 18.3946 10.3407 17.6424C7.47418 16.1263 5.03395 13.9173 3.2429 11.2172C2.8528 10.6521 2.50598 10.0585 2.2054 9.4413C1.39906 8.06165 0.982659 6.4895 1.00055 4.89229C1.06211 4.05672 1.46351 3.28269 2.11143 2.75015Z" stroke="currentColor" stroke-width="1.5" stroke-linecap="round" stroke-linejoin="round"/></symbol><symbol viewBox="0 0 24 24" fill="none" id="svg-search"><path clip-rule="evenodd" d="M5 11.1455C4.99956 8.21437 7.06975 5.69108 9.94452 5.11883C12.8193 4.54659 15.698 6.08477 16.82 8.79267C17.9421 11.5006 16.995 14.624 14.558 16.2528C12.121 17.8815 8.87287 17.562 6.8 15.4895C5.64763 14.3376 5.00014 12.775 5 11.1455Z" stroke="#7D818E" stroke-width="1.5" stroke-linecap="round" stroke-linejoin="round"/><path d="M15.4883 15.4907L18.9993 19.0017" stroke="#7D818E" stroke-width="1.5" stroke-linecap="round" stroke-linejoin="round"/></symbol><symbol viewBox="0 0 24 24" fill="none" id="svg-search-navbar"><path fill-rule="evenodd" clip-rule="evenodd" d="M19.1825 7.57547C21.2832 9.6761 21.2832 13.0819 19.1825 15.1825C17.0819 17.2832 13.6761 17.2832 11.5755 15.1825C9.47484 13.0819 9.47484 9.67611 11.5755 7.57547C13.6761 5.47484 17.0819 5.47484 19.1825 7.57547" fill="#F2F6F7"/><path d="M19.1825 7.57547C21.2832 9.6761 21.2832 13.0819 19.1825 15.1825 17.0819 17.2832 13.6761 17.2832 11.5755 15.1825 9.47484 13.0819 9.47484 9.67611 11.5755 7.57547 13.6761 5.47484 17.0819 5.47484 19.1825 7.57547M21.9997 17.9997L19.1797 15.1797M2 8H6M2 13H7M2 18H10" stroke="currentColor" stroke-width="1.5" stroke-linecap="round" stroke-linejoin="round"/></symbol><symbol viewBox="0 0 24 24" fill="currentColor" id="svg-user-navbar"><path d="M12 12C14.4853 12 16.5 9.98528 16.5 7.5C16.5 5.01472 14.4853 3 12 3C9.51472 3 7.5 5.01472 7.5 7.5C7.5 9.98528 9.51472 12 12 12Z" fill="#F2F6F7" stroke="currentColor" stroke-width="1.5" stroke-linecap="round" stroke-linejoin="round"/><path d="M19.2321 17.6905C20.9786 18.8053 19.8832 20.9996 17.7831 20.9996H6.2177C4.11756 20.9996 3.02222 18.8053 4.76869 17.6905C6.8381 16.3697 9.32515 15.5996 12.0004 15.5996C14.6756 15.5996 17.1627 16.3697 19.2321 17.6905Z" fill="#F2F6F7" stroke="currentColor" stroke-width="1.5"/></symbol><symbol viewBox="0 0 18 12" fill="currentColor" id="svg-vk"><path fill-rule="evenodd" clip-rule="evenodd" d="M17.587 0.812527C17.7122 0.344211 17.587 0 16.9915 0H15.0223C14.5215 0 14.2908 0.297316 14.1657 0.625263C14.1657 0.625263 13.1642 3.36521 11.7455 5.145C11.2865 5.66021 11.0779 5.82395 10.8276 5.82395C10.7024 5.82395 10.5212 5.66021 10.5212 5.1919V0.812527C10.5212 0.250422 10.3759 0 9.95858 0H6.8641C6.55128 0 6.36308 0.260842 6.36308 0.508106C6.36308 1.041 7.07228 1.16384 7.14542 2.66258V5.91789C7.14542 6.63158 7.03064 6.76105 6.78027 6.76105C6.11271 6.76105 4.48895 4.00863 3.52573 0.859421C3.33697 0.247263 3.14764 0 2.64437 0H0.675158C0.112526 0 0 0.297316 0 0.625263C0 1.21074 0.667702 4.11474 3.10854 7.95537C4.73595 10.578 7.02839 12 9.11463 12C10.3665 12 10.5212 11.6842 10.5212 11.1403V9.15789C10.5212 8.52632 10.6398 8.40032 11.036 8.40032C11.3283 8.40032 11.8289 8.56421 12.9973 9.82879C14.3325 11.3274 14.5525 12 15.3036 12H17.2728C17.8354 12 18.1167 11.6842 17.9544 11.061C17.7769 10.4398 17.1394 9.53889 16.2935 8.47058C15.8346 7.86158 15.146 7.20584 14.9376 6.87805C14.6454 6.45647 14.7288 6.26921 14.9376 5.89468C14.9376 5.89468 17.3366 2.10079 17.587 0.812685V0.812527Z"/></symbol></svg>