<svg width="16" height="17" viewBox="0 0 16 17" fill="none" xmlns="http://www.w3.org/2000/svg">
<path d="M14 8.01027C14 9.07142 11.3137 12.8103 8 12.8103C4.68629 12.8103 2 9.07142 2 8.01027C2 6.94911 4.68629 3.21027 8 3.21027C11.3137 3.21027 14 6.94911 14 8.01027Z" fill="#0093A2"/>
<path d="M13.25 8.01027C13.25 8.00671 13.2456 8.0798 13.1799 8.24734C13.1192 8.40194 13.0227 8.59605 12.8875 8.81852C12.6174 9.26316 12.2172 9.78148 11.7169 10.2733C10.6998 11.2732 9.37856 12.0603 8 12.0603V13.5603C9.93515 13.5603 11.6139 12.4779 12.7684 11.343C13.3538 10.7676 13.8324 10.1522 14.1695 9.59736C14.3379 9.32009 14.4771 9.048 14.5763 8.79502C14.6705 8.55499 14.75 8.27911 14.75 8.01027H13.25ZM8 12.0603C6.62144 12.0603 5.30022 11.2732 4.28313 10.2733C3.78277 9.78148 3.38263 9.26316 3.11249 8.81852C2.97733 8.59605 2.88075 8.40194 2.82012 8.24734C2.75441 8.0798 2.75 8.00671 2.75 8.01027H1.25C1.25 8.27911 1.32954 8.55499 1.42368 8.79502C1.5229 9.048 1.66208 9.32009 1.83053 9.59736C2.16763 10.1522 2.64616 10.7676 3.23159 11.343C4.38607 12.4779 6.06485 13.5603 8 13.5603V12.0603ZM2.75 8.01027C2.75 8.01382 2.75441 7.94073 2.82012 7.77319C2.88075 7.61859 2.97733 7.42448 3.11249 7.20202C3.38263 6.75737 3.78277 6.23905 4.28313 5.74718C5.30022 4.74736 6.62144 3.96027 8 3.96027V2.46027C6.06485 2.46027 4.38607 3.5426 3.23159 4.67748C2.64616 5.25298 2.16763 5.86833 1.83053 6.42317C1.66208 6.70045 1.5229 6.97253 1.42368 7.22551C1.32954 7.46554 1.25 7.74143 1.25 8.01027H2.75ZM8 3.96027C9.37856 3.96027 10.6998 4.74736 11.7169 5.74718C12.2172 6.23905 12.6174 6.75737 12.8875 7.20202C13.0227 7.42448 13.1192 7.61859 13.1799 7.77319C13.2456 7.94073 13.25 8.01382 13.25 8.01027H14.75C14.75 7.74143 14.6705 7.46554 14.5763 7.22551C14.4771 6.97253 14.3379 6.70045 14.1695 6.42317C13.8324 5.86833 13.3538 5.25298 12.7684 4.67748C11.6139 3.5426 9.93515 2.46027 8 2.46027V3.96027Z" fill="#0093A2"/>
<path d="M7.99922 9.81027C8.99333 9.81027 9.79922 9.00438 9.79922 8.01027C9.79922 7.01615 8.99333 6.21027 7.99922 6.21027C7.00511 6.21027 6.19922 7.01615 6.19922 8.01027C6.19922 9.00438 7.00511 9.81027 7.99922 9.81027Z" fill="white"/>
</svg>
